<svg width="1600" height="900" viewBox="0 0 1600 900" fill="none" xmlns="http://www.w3.org/2000/svg">
<rect width="1600" height="900" fill="#2A2A2A"/>
<g clip-path="url(#clip0_20_2)">
<path d="M403.436 22.0157L400.177 42.9145L421.907 26.7387L403.436 22.0157Z" fill="white" stroke="black" stroke-width="0.2" stroke-miterlimit="10"/>
<path d="M415.871 19.0641L429.393 22.0157V35.1219L400.177 42.9144L421.907 26.7387L415.871 19.0641Z" fill="white" stroke="black" stroke-width="0.2" stroke-miterlimit="10"/>
<path d="M415.871 19.0641L421.907 26.7387L412.401 24.3078L415.871 19.0641Z" fill="#F6F0ED" stroke="black" stroke-width="0.2" stroke-miterlimit="10"/>
</g>
<path d="M450.66 35.4C450.193 35.9467 449.647 36.36 449.02 36.64C448.407 36.92 447.733 37.06 447 37.06C446.04 37.06 445.16 36.84 444.36 36.4C443.56 35.9733 442.647 35.2267 441.62 34.16C440.327 34.0533 439.167 33.68 438.14 33.04C437.113 32.3867 436.313 31.54 435.74 30.5C435.167 29.4467 434.88 28.28 434.88 27C434.88 25.64 435.207 24.4133 435.86 23.32C436.513 22.2133 437.413 21.3533 438.56 20.74C439.707 20.1133 440.993 19.8 442.42 19.8C443.847 19.8 445.133 20.1133 446.28 20.74C447.427 21.3533 448.327 22.2067 448.98 23.3C449.633 24.3933 449.96 25.6267 449.96 27C449.96 28.1067 449.74 29.1333 449.3 30.08C448.86 31.0133 448.247 31.8133 447.46 32.48C446.673 33.1333 445.76 33.6067 444.72 33.9C445.107 34.3133 445.487 34.6133 445.86 34.8C446.233 34.9867 446.633 35.08 447.06 35.08C447.98 35.08 448.78 34.7067 449.46 33.96L450.66 35.4ZM437.5 27C437.5 27.9333 437.713 28.78 438.14 29.54C438.567 30.2867 439.153 30.8733 439.9 31.3C440.647 31.7133 441.487 31.92 442.42 31.92C443.353 31.92 444.193 31.7133 444.94 31.3C445.687 30.8733 446.273 30.2867 446.7 29.54C447.127 28.78 447.34 27.9333 447.34 27C447.34 26.0667 447.127 25.2267 446.7 24.48C446.273 23.72 445.687 23.1333 444.94 22.72C444.193 22.2933 443.353 22.08 442.42 22.08C441.487 22.08 440.647 22.2933 439.9 22.72C439.153 23.1333 438.567 23.72 438.14 24.48C437.713 25.2267 437.5 26.0667 437.5 27ZM465.156 20V34H462.556V28H455.316V34H452.716V20H455.316V25.78H462.556V20H465.156ZM472.747 23.2C474.321 23.2 475.521 23.58 476.347 24.34C477.187 25.0867 477.607 26.22 477.607 27.74V34H475.247V32.7C474.941 33.1667 474.501 33.5267 473.927 33.78C473.367 34.02 472.687 34.14 471.887 34.14C471.087 34.14 470.387 34.0067 469.787 33.74C469.187 33.46 468.721 33.08 468.387 32.6C468.067 32.1067 467.907 31.5533 467.907 30.94C467.907 29.98 468.261 29.2133 468.967 28.64C469.687 28.0533 470.814 27.76 472.347 27.76H475.107V27.6C475.107 26.8533 474.881 26.28 474.427 25.88C473.987 25.48 473.327 25.28 472.447 25.28C471.847 25.28 471.254 25.3733 470.667 25.56C470.094 25.7467 469.607 26.0067 469.207 26.34L468.227 24.52C468.787 24.0933 469.461 23.7667 470.247 23.54C471.034 23.3133 471.867 23.2 472.747 23.2ZM472.407 32.32C473.034 32.32 473.587 32.18 474.067 31.9C474.561 31.6067 474.907 31.1933 475.107 30.66V29.42H472.527C471.087 29.42 470.367 29.8933 470.367 30.84C470.367 31.2933 470.547 31.6533 470.907 31.92C471.267 32.1867 471.767 32.32 472.407 32.32ZM487.236 33.42C486.942 33.66 486.582 33.84 486.156 33.96C485.742 34.08 485.302 34.14 484.836 34.14C483.662 34.14 482.756 33.8333 482.116 33.22C481.476 32.6067 481.156 31.7133 481.156 30.54V25.4H479.396V23.4H481.156V20.96H483.656V23.4H486.516V25.4H483.656V30.48C483.656 31 483.782 31.4 484.036 31.68C484.289 31.9467 484.656 32.08 485.136 32.08C485.696 32.08 486.162 31.9333 486.536 31.64L487.236 33.42Z" fill="white"/>
<path d="M1083.32 34.078C1082.64 34.078 1081.99 33.9697 1081.37 33.753C1080.75 33.5363 1080.28 33.2503 1079.94 32.895L1080.32 32.154C1080.65 32.4833 1081.08 32.752 1081.63 32.96C1082.18 33.1593 1082.74 33.259 1083.32 33.259C1084.13 33.259 1084.75 33.1117 1085.15 32.817C1085.56 32.5137 1085.76 32.1237 1085.76 31.647C1085.76 31.283 1085.65 30.9927 1085.43 30.776C1085.21 30.5593 1084.94 30.3947 1084.62 30.282C1084.3 30.1607 1083.85 30.0307 1083.28 29.892C1082.6 29.7187 1082.05 29.554 1081.64 29.398C1081.24 29.2333 1080.88 28.9863 1080.59 28.657C1080.3 28.3277 1080.16 27.8813 1080.16 27.318C1080.16 26.8587 1080.28 26.4427 1080.53 26.07C1080.77 25.6887 1081.14 25.3853 1081.64 25.16C1082.15 24.9347 1082.77 24.822 1083.52 24.822C1084.04 24.822 1084.54 24.8957 1085.04 25.043C1085.54 25.1817 1085.97 25.3767 1086.34 25.628L1086.01 26.395C1085.63 26.1437 1085.22 25.9573 1084.79 25.836C1084.36 25.706 1083.93 25.641 1083.52 25.641C1082.72 25.641 1082.12 25.797 1081.71 26.109C1081.31 26.4123 1081.11 26.8067 1081.11 27.292C1081.11 27.656 1081.22 27.9507 1081.44 28.176C1081.66 28.3927 1081.94 28.5617 1082.27 28.683C1082.61 28.7957 1083.06 28.9213 1083.62 29.06C1084.29 29.2247 1084.82 29.3893 1085.23 29.554C1085.65 29.71 1086 29.9527 1086.28 30.282C1086.57 30.6027 1086.71 31.0403 1086.71 31.595C1086.71 32.0543 1086.59 32.4747 1086.34 32.856C1086.09 33.2287 1085.72 33.5277 1085.21 33.753C1084.69 33.9697 1084.07 34.078 1083.32 34.078ZM1088.61 27.162H1089.54V34H1088.61V27.162ZM1089.08 25.667C1088.89 25.667 1088.73 25.602 1088.6 25.472C1088.47 25.342 1088.41 25.186 1088.41 25.004C1088.41 24.8307 1088.47 24.679 1088.6 24.549C1088.73 24.419 1088.89 24.354 1089.08 24.354C1089.27 24.354 1089.43 24.419 1089.56 24.549C1089.69 24.6703 1089.76 24.8177 1089.76 24.991C1089.76 25.1817 1089.69 25.342 1089.56 25.472C1089.43 25.602 1089.27 25.667 1089.08 25.667ZM1098.44 27.162V33.168C1098.44 34.3293 1098.15 35.1873 1097.58 35.742C1097.02 36.3053 1096.16 36.587 1095.02 36.587C1094.38 36.587 1093.78 36.4917 1093.21 36.301C1092.65 36.119 1092.19 35.8633 1091.83 35.534L1092.3 34.832C1092.63 35.1267 1093.03 35.3563 1093.5 35.521C1093.97 35.6857 1094.47 35.768 1094.99 35.768C1095.86 35.768 1096.5 35.5643 1096.9 35.157C1097.31 34.7583 1097.51 34.1343 1097.51 33.285V32.414C1097.23 32.8473 1096.85 33.1767 1096.38 33.402C1095.92 33.6273 1095.41 33.74 1094.85 33.74C1094.21 33.74 1093.62 33.6013 1093.09 33.324C1092.57 33.038 1092.16 32.6437 1091.86 32.141C1091.56 31.6297 1091.42 31.0533 1091.42 30.412C1091.42 29.7707 1091.56 29.1987 1091.86 28.696C1092.16 28.1933 1092.57 27.8033 1093.09 27.526C1093.61 27.2487 1094.2 27.11 1094.85 27.11C1095.43 27.11 1095.95 27.227 1096.42 27.461C1096.89 27.695 1097.27 28.033 1097.55 28.475V27.162H1098.44ZM1094.94 32.921C1095.43 32.921 1095.88 32.817 1096.28 32.609C1096.68 32.3923 1096.98 32.0933 1097.2 31.712C1097.43 31.3307 1097.54 30.8973 1097.54 30.412C1097.54 29.9267 1097.43 29.4977 1097.2 29.125C1096.98 28.7437 1096.68 28.449 1096.28 28.241C1095.89 28.0243 1095.44 27.916 1094.94 27.916C1094.45 27.916 1094 28.02 1093.6 28.228C1093.21 28.436 1092.9 28.7307 1092.68 29.112C1092.46 29.4933 1092.35 29.9267 1092.35 30.412C1092.35 30.8973 1092.46 31.3307 1092.68 31.712C1092.9 32.0933 1093.21 32.3923 1093.6 32.609C1094 32.817 1094.45 32.921 1094.94 32.921ZM1104.5 27.11C1105.36 27.11 1106.04 27.3613 1106.54 27.864C1107.05 28.358 1107.31 29.0817 1107.31 30.035V34H1106.39V30.126C1106.39 29.4153 1106.21 28.8737 1105.85 28.501C1105.5 28.1283 1104.99 27.942 1104.33 27.942C1103.6 27.942 1103.01 28.163 1102.58 28.605C1102.15 29.0383 1101.94 29.6407 1101.94 30.412V34H1101.02V27.162H1101.9V28.423C1102.15 28.007 1102.5 27.6863 1102.94 27.461C1103.39 27.227 1103.91 27.11 1104.5 27.11ZM1119.38 27.162V34H1118.5V32.752C1118.25 33.168 1117.92 33.493 1117.49 33.727C1117.07 33.9523 1116.58 34.065 1116.04 34.065C1115.15 34.065 1114.44 33.818 1113.92 33.324C1113.41 32.8213 1113.15 32.089 1113.15 31.127V27.162H1114.08V31.036C1114.08 31.7553 1114.25 32.3013 1114.61 32.674C1114.96 33.0467 1115.47 33.233 1116.13 33.233C1116.85 33.233 1117.42 33.0163 1117.83 32.583C1118.25 32.141 1118.46 31.53 1118.46 30.75V27.162H1119.38ZM1125.49 27.11C1126.13 27.11 1126.71 27.2573 1127.23 27.552C1127.75 27.838 1128.16 28.2453 1128.45 28.774C1128.75 29.3027 1128.89 29.905 1128.89 30.581C1128.89 31.2657 1128.75 31.8723 1128.45 32.401C1128.16 32.9297 1127.75 33.3413 1127.23 33.636C1126.72 33.922 1126.14 34.065 1125.49 34.065C1124.93 34.065 1124.43 33.9523 1123.98 33.727C1123.54 33.493 1123.17 33.155 1122.89 32.713V36.522H1121.96V27.162H1122.85V28.514C1123.13 28.0633 1123.49 27.7167 1123.94 27.474C1124.4 27.2313 1124.92 27.11 1125.49 27.11ZM1125.42 33.246C1125.9 33.246 1126.33 33.1377 1126.72 32.921C1127.11 32.6957 1127.42 32.3793 1127.63 31.972C1127.86 31.5647 1127.97 31.101 1127.97 30.581C1127.97 30.061 1127.86 29.6017 1127.63 29.203C1127.42 28.7957 1127.11 28.4793 1126.72 28.254C1126.33 28.0287 1125.9 27.916 1125.42 27.916C1124.94 27.916 1124.5 28.0287 1124.11 28.254C1123.73 28.4793 1123.43 28.7957 1123.2 29.203C1122.98 29.6017 1122.87 30.061 1122.87 30.581C1122.87 31.101 1122.98 31.5647 1123.2 31.972C1123.43 32.3793 1123.73 32.6957 1124.11 32.921C1124.5 33.1377 1124.94 33.246 1125.42 33.246Z" fill="white"/>
<path d="M1158.02 34.078C1157.35 34.078 1156.7 33.9697 1156.07 33.753C1155.46 33.5363 1154.98 33.2503 1154.64 32.895L1155.02 32.154C1155.35 32.4833 1155.79 32.752 1156.33 32.96C1156.88 33.1593 1157.44 33.259 1158.02 33.259C1158.84 33.259 1159.45 33.1117 1159.86 32.817C1160.27 32.5137 1160.47 32.1237 1160.47 31.647C1160.47 31.283 1160.36 30.9927 1160.13 30.776C1159.91 30.5593 1159.65 30.3947 1159.32 30.282C1159 30.1607 1158.56 30.0307 1157.99 29.892C1157.3 29.7187 1156.76 29.554 1156.35 29.398C1155.94 29.2333 1155.59 28.9863 1155.29 28.657C1155.01 28.3277 1154.87 27.8813 1154.87 27.318C1154.87 26.8587 1154.99 26.4427 1155.23 26.07C1155.47 25.6887 1155.85 25.3853 1156.35 25.16C1156.85 24.9347 1157.47 24.822 1158.22 24.822C1158.74 24.822 1159.25 24.8957 1159.74 25.043C1160.24 25.1817 1160.68 25.3767 1161.04 25.628L1160.72 26.395C1160.33 26.1437 1159.93 25.9573 1159.49 25.836C1159.06 25.706 1158.64 25.641 1158.22 25.641C1157.42 25.641 1156.82 25.797 1156.41 26.109C1156.01 26.4123 1155.81 26.8067 1155.81 27.292C1155.81 27.656 1155.92 27.9507 1156.14 28.176C1156.37 28.3927 1156.64 28.5617 1156.97 28.683C1157.31 28.7957 1157.76 28.9213 1158.32 29.06C1158.99 29.2247 1159.53 29.3893 1159.94 29.554C1160.35 29.71 1160.7 29.9527 1160.99 30.282C1161.27 30.6027 1161.42 31.0403 1161.42 31.595C1161.42 32.0543 1161.29 32.4747 1161.04 32.856C1160.8 33.2287 1160.42 33.5277 1159.91 33.753C1159.4 33.9697 1158.77 34.078 1158.02 34.078ZM1163.32 27.162H1164.24V34H1163.32V27.162ZM1163.79 25.667C1163.6 25.667 1163.44 25.602 1163.31 25.472C1163.18 25.342 1163.11 25.186 1163.11 25.004C1163.11 24.8307 1163.18 24.679 1163.31 24.549C1163.44 24.419 1163.6 24.354 1163.79 24.354C1163.98 24.354 1164.14 24.419 1164.27 24.549C1164.4 24.6703 1164.46 24.8177 1164.46 24.991C1164.46 25.1817 1164.4 25.342 1164.27 25.472C1164.14 25.602 1163.98 25.667 1163.79 25.667ZM1173.14 27.162V33.168C1173.14 34.3293 1172.85 35.1873 1172.28 35.742C1171.72 36.3053 1170.87 36.587 1169.72 36.587C1169.09 36.587 1168.49 36.4917 1167.91 36.301C1167.35 36.119 1166.89 35.8633 1166.54 35.534L1167 34.832C1167.33 35.1267 1167.73 35.3563 1168.2 35.521C1168.68 35.6857 1169.18 35.768 1169.7 35.768C1170.56 35.768 1171.2 35.5643 1171.61 35.157C1172.01 34.7583 1172.22 34.1343 1172.22 33.285V32.414C1171.93 32.8473 1171.55 33.1767 1171.09 33.402C1170.63 33.6273 1170.12 33.74 1169.55 33.74C1168.91 33.74 1168.33 33.6013 1167.8 33.324C1167.28 33.038 1166.87 32.6437 1166.56 32.141C1166.27 31.6297 1166.12 31.0533 1166.12 30.412C1166.12 29.7707 1166.27 29.1987 1166.56 28.696C1166.87 28.1933 1167.28 27.8033 1167.8 27.526C1168.32 27.2487 1168.9 27.11 1169.55 27.11C1170.13 27.11 1170.66 27.227 1171.13 27.461C1171.59 27.695 1171.97 28.033 1172.26 28.475V27.162H1173.14ZM1169.64 32.921C1170.14 32.921 1170.58 32.817 1170.98 32.609C1171.38 32.3923 1171.69 32.0933 1171.91 31.712C1172.13 31.3307 1172.24 30.8973 1172.24 30.412C1172.24 29.9267 1172.13 29.4977 1171.91 29.125C1171.69 28.7437 1171.38 28.449 1170.98 28.241C1170.59 28.0243 1170.15 27.916 1169.64 27.916C1169.15 27.916 1168.7 28.02 1168.3 28.228C1167.91 28.436 1167.61 28.7307 1167.38 29.112C1167.17 29.4933 1167.06 29.9267 1167.06 30.412C1167.06 30.8973 1167.17 31.3307 1167.38 31.712C1167.61 32.0933 1167.91 32.3923 1168.3 32.609C1168.7 32.817 1169.15 32.921 1169.64 32.921ZM1179.21 27.11C1180.06 27.11 1180.74 27.3613 1181.25 27.864C1181.76 28.358 1182.01 29.0817 1182.01 30.035V34H1181.09V30.126C1181.09 29.4153 1180.91 28.8737 1180.56 28.501C1180.2 28.1283 1179.7 27.942 1179.04 27.942C1178.3 27.942 1177.72 28.163 1177.28 28.605C1176.86 29.0383 1176.65 29.6407 1176.65 30.412V34H1175.72V27.162H1176.61V28.423C1176.86 28.007 1177.2 27.6863 1177.65 27.461C1178.1 27.227 1178.62 27.11 1179.21 27.11ZM1187.92 27.162H1188.85V34H1187.92V27.162ZM1188.39 25.667C1188.2 25.667 1188.04 25.602 1187.91 25.472C1187.78 25.342 1187.71 25.186 1187.71 25.004C1187.71 24.8307 1187.78 24.679 1187.91 24.549C1188.04 24.419 1188.2 24.354 1188.39 24.354C1188.58 24.354 1188.74 24.419 1188.87 24.549C1189 24.6703 1189.07 24.8177 1189.07 24.991C1189.07 25.1817 1189 25.342 1188.87 25.472C1188.74 25.602 1188.58 25.667 1188.39 25.667ZM1194.9 27.11C1195.76 27.11 1196.44 27.3613 1196.94 27.864C1197.45 28.358 1197.71 29.0817 1197.71 30.035V34H1196.78V30.126C1196.78 29.4153 1196.6 28.8737 1196.25 28.501C1195.89 28.1283 1195.39 27.942 1194.73 27.942C1193.99 27.942 1193.41 28.163 1192.97 28.605C1192.55 29.0383 1192.34 29.6407 1192.34 30.412V34H1191.41V27.162H1192.3V28.423C1192.55 28.007 1192.9 27.6863 1193.34 27.461C1193.79 27.227 1194.31 27.11 1194.9 27.11Z" fill="#E5E5E5"/>
<path d="M738.16 463.3C735.349 466.772 731.919 469.417 727.868 471.236C723.9 473.055 719.519 473.964 714.724 473.964C708.276 473.964 702.448 472.559 697.24 469.748C692.032 467.02 686.08 462.143 679.384 455.116C671.531 454.124 664.504 451.603 658.304 447.552C652.187 443.501 647.392 438.293 643.92 431.928C640.531 425.48 638.836 418.371 638.836 410.6C638.836 402.085 640.861 394.439 644.912 387.66C649.045 380.799 654.708 375.425 661.9 371.54C669.175 367.655 677.317 365.712 686.328 365.712C695.339 365.712 703.44 367.655 710.632 371.54C717.824 375.425 723.487 380.799 727.62 387.66C731.753 394.439 733.82 402.085 733.82 410.6C733.82 420.685 730.968 429.531 725.264 437.136C719.643 444.741 712.161 450.032 702.82 453.008C704.887 455.157 706.871 456.687 708.772 457.596C710.756 458.588 712.864 459.084 715.096 459.084C720.469 459.084 725.181 456.935 729.232 452.636L738.16 463.3ZM659.172 410.6C659.172 415.973 660.329 420.768 662.644 424.984C665.041 429.2 668.307 432.507 672.44 434.904C676.573 437.219 681.203 438.376 686.328 438.376C691.453 438.376 696.083 437.219 700.216 434.904C704.349 432.507 707.573 429.2 709.888 424.984C712.285 420.768 713.484 415.973 713.484 410.6C713.484 405.227 712.285 400.432 709.888 396.216C707.573 392 704.349 388.735 700.216 386.42C696.083 384.023 691.453 382.824 686.328 382.824C681.203 382.824 676.573 384.023 672.44 386.42C668.307 388.735 665.041 392 662.644 396.216C660.329 400.432 659.172 405.227 659.172 410.6ZM828.525 367.2V454H808.437V418.412H769.005V454H748.917V367.2H769.005V401.424H808.437V367.2H828.525ZM874.606 386.296C884.939 386.296 892.875 388.776 898.414 393.736C903.952 398.613 906.722 406.012 906.722 415.932V454H888.618V445.692C884.98 451.892 878.202 454.992 868.282 454.992C863.156 454.992 858.692 454.124 854.89 452.388C851.17 450.652 848.318 448.255 846.334 445.196C844.35 442.137 843.358 438.665 843.358 434.78C843.358 428.58 845.672 423.703 850.302 420.148C855.014 416.593 862.247 414.816 872.002 414.816H887.378C887.378 410.6 886.096 407.376 883.534 405.144C880.971 402.829 877.127 401.672 872.002 401.672C868.447 401.672 864.934 402.251 861.462 403.408C858.072 404.483 855.179 405.971 852.782 407.872L845.838 394.356C849.475 391.793 853.815 389.809 858.858 388.404C863.983 386.999 869.232 386.296 874.606 386.296ZM873.118 441.972C876.424 441.972 879.359 441.228 881.922 439.74C884.484 438.169 886.303 435.896 887.378 432.92V426.1H874.11C866.174 426.1 862.206 428.704 862.206 433.912C862.206 436.392 863.156 438.376 865.058 439.864C867.042 441.269 869.728 441.972 873.118 441.972ZM967.257 450.776C965.355 452.181 962.999 453.256 960.189 454C957.461 454.661 954.567 454.992 951.509 454.992C943.573 454.992 937.414 452.967 933.033 448.916C928.734 444.865 926.585 438.913 926.585 431.06V403.656H916.293V388.776H926.585V372.532H945.929V388.776H962.545V403.656H945.929V430.812C945.929 433.623 946.631 435.813 948.037 437.384C949.525 438.872 951.591 439.616 954.237 439.616C957.295 439.616 959.899 438.789 962.049 437.136L967.257 450.776Z" fill="white"/>
<path d="M640.032 528.192C638.352 528.192 636.832 527.824 635.472 527.088C634.128 526.336 633.072 525.312 632.304 524.016C631.536 522.704 631.152 521.232 631.152 519.6C631.152 517.968 631.536 516.504 632.304 515.208C633.072 513.896 634.136 512.872 635.496 512.136C636.856 511.384 638.376 511.008 640.056 511.008C641.368 511.008 642.568 511.232 643.656 511.68C644.744 512.112 645.672 512.76 646.44 513.624L644.88 515.136C643.616 513.808 642.04 513.144 640.152 513.144C638.904 513.144 637.776 513.424 636.768 513.984C635.76 514.544 634.968 515.32 634.392 516.312C633.832 517.288 633.552 518.384 633.552 519.6C633.552 520.816 633.832 521.92 634.392 522.912C634.968 523.888 635.76 524.656 636.768 525.216C637.776 525.776 638.904 526.056 640.152 526.056C642.024 526.056 643.6 525.384 644.88 524.04L646.44 525.552C645.672 526.416 644.736 527.072 643.632 527.52C642.544 527.968 641.344 528.192 640.032 528.192ZM654.437 528.144C653.173 528.144 652.037 527.864 651.029 527.304C650.021 526.744 649.229 525.976 648.653 525C648.093 524.008 647.813 522.888 647.813 521.64C647.813 520.392 648.093 519.28 648.653 518.304C649.229 517.312 650.021 516.544 651.029 516C652.037 515.44 653.173 515.16 654.437 515.16C655.701 515.16 656.829 515.44 657.821 516C658.829 516.544 659.613 517.312 660.173 518.304C660.749 519.28 661.037 520.392 661.037 521.64C661.037 522.888 660.749 524.008 660.173 525C659.613 525.976 658.829 526.744 657.821 527.304C656.829 527.864 655.701 528.144 654.437 528.144ZM654.437 526.128C655.253 526.128 655.981 525.944 656.621 525.576C657.277 525.192 657.789 524.664 658.157 523.992C658.525 523.304 658.709 522.52 658.709 521.64C658.709 520.76 658.525 519.984 658.157 519.312C657.789 518.624 657.277 518.096 656.621 517.728C655.981 517.36 655.253 517.176 654.437 517.176C653.621 517.176 652.885 517.36 652.229 517.728C651.589 518.096 651.077 518.624 650.693 519.312C650.325 519.984 650.141 520.76 650.141 521.64C650.141 522.52 650.325 523.304 650.693 523.992C651.077 524.664 651.589 525.192 652.229 525.576C652.885 525.944 653.621 526.128 654.437 526.128ZM680.135 515.16C681.735 515.16 682.999 515.624 683.927 516.552C684.871 517.48 685.343 518.856 685.343 520.68V528H683.039V520.944C683.039 519.712 682.751 518.784 682.175 518.16C681.615 517.536 680.807 517.224 679.751 517.224C678.583 517.224 677.655 517.592 676.967 518.328C676.279 519.048 675.935 520.088 675.935 521.448V528H673.631V520.944C673.631 519.712 673.343 518.784 672.767 518.16C672.207 517.536 671.399 517.224 670.343 517.224C669.175 517.224 668.247 517.592 667.559 518.328C666.871 519.048 666.527 520.088 666.527 521.448V528H664.223V515.28H666.431V517.176C666.895 516.52 667.503 516.024 668.255 515.688C669.007 515.336 669.863 515.16 670.823 515.16C671.815 515.16 672.695 515.36 673.463 515.76C674.231 516.16 674.823 516.744 675.239 517.512C675.719 516.776 676.383 516.2 677.231 515.784C678.095 515.368 679.063 515.16 680.135 515.16ZM705.494 515.16C707.094 515.16 708.358 515.624 709.286 516.552C710.23 517.48 710.702 518.856 710.702 520.68V528H708.398V520.944C708.398 519.712 708.11 518.784 707.534 518.16C706.974 517.536 706.166 517.224 705.11 517.224C703.942 517.224 703.014 517.592 702.326 518.328C701.638 519.048 701.294 520.088 701.294 521.448V528H698.99V520.944C698.99 519.712 698.702 518.784 698.126 518.16C697.566 517.536 696.758 517.224 695.702 517.224C694.534 517.224 693.606 517.592 692.918 518.328C692.23 519.048 691.886 520.088 691.886 521.448V528H689.582V515.28H691.79V517.176C692.254 516.52 692.862 516.024 693.614 515.688C694.366 515.336 695.222 515.16 696.182 515.16C697.174 515.16 698.054 515.36 698.822 515.76C699.59 516.16 700.182 516.744 700.598 517.512C701.078 516.776 701.742 516.2 702.59 515.784C703.454 515.368 704.422 515.16 705.494 515.16ZM726.798 515.28V528H724.614V526.08C724.15 526.736 723.534 527.248 722.766 527.616C722.014 527.968 721.19 528.144 720.294 528.144C718.598 528.144 717.262 527.68 716.286 526.752C715.31 525.808 714.822 524.424 714.822 522.6V515.28H717.126V522.336C717.126 523.568 717.422 524.504 718.014 525.144C718.606 525.768 719.454 526.08 720.558 526.08C721.774 526.08 722.734 525.712 723.438 524.976C724.142 524.24 724.494 523.2 724.494 521.856V515.28H726.798ZM737.976 515.16C739.592 515.16 740.872 515.632 741.816 516.576C742.776 517.504 743.256 518.872 743.256 520.68V528H740.952V520.944C740.952 519.712 740.656 518.784 740.064 518.16C739.472 517.536 738.624 517.224 737.52 517.224C736.272 517.224 735.288 517.592 734.568 518.328C733.848 519.048 733.488 520.088 733.488 521.448V528H731.184V515.28H733.392V517.2C733.856 516.544 734.48 516.04 735.264 515.688C736.064 515.336 736.968 515.16 737.976 515.16ZM747.52 515.28H749.824V528H747.52V515.28ZM748.672 512.832C748.224 512.832 747.848 512.688 747.544 512.4C747.256 512.112 747.112 511.76 747.112 511.344C747.112 510.928 747.256 510.576 747.544 510.288C747.848 509.984 748.224 509.832 748.672 509.832C749.12 509.832 749.488 509.976 749.776 510.264C750.08 510.536 750.232 510.88 750.232 511.296C750.232 511.728 750.08 512.096 749.776 512.4C749.488 512.688 749.12 512.832 748.672 512.832ZM759.767 528.144C758.471 528.144 757.311 527.864 756.287 527.304C755.279 526.744 754.487 525.976 753.911 525C753.335 524.008 753.047 522.888 753.047 521.64C753.047 520.392 753.335 519.28 753.911 518.304C754.487 517.312 755.279 516.544 756.287 516C757.311 515.44 758.471 515.16 759.767 515.16C760.919 515.16 761.943 515.392 762.839 515.856C763.751 516.32 764.455 516.992 764.951 517.872L763.199 519C762.799 518.392 762.303 517.936 761.711 517.632C761.119 517.328 760.463 517.176 759.743 517.176C758.911 517.176 758.159 517.36 757.487 517.728C756.831 518.096 756.311 518.624 755.927 519.312C755.559 519.984 755.375 520.76 755.375 521.64C755.375 522.536 755.559 523.328 755.927 524.016C756.311 524.688 756.831 525.208 757.487 525.576C758.159 525.944 758.911 526.128 759.743 526.128C760.463 526.128 761.119 525.976 761.711 525.672C762.303 525.368 762.799 524.912 763.199 524.304L764.951 525.408C764.455 526.288 763.751 526.968 762.839 527.448C761.943 527.912 760.919 528.144 759.767 528.144ZM772.566 515.16C774.326 515.16 775.67 515.592 776.598 516.456C777.542 517.32 778.014 518.608 778.014 520.32V528H775.83V526.32C775.446 526.912 774.894 527.368 774.174 527.688C773.47 527.992 772.63 528.144 771.654 528.144C770.23 528.144 769.086 527.8 768.222 527.112C767.374 526.424 766.95 525.52 766.95 524.4C766.95 523.28 767.358 522.384 768.174 521.712C768.99 521.024 770.286 520.68 772.062 520.68H775.71V520.224C775.71 519.232 775.422 518.472 774.846 517.944C774.27 517.416 773.422 517.152 772.302 517.152C771.55 517.152 770.814 517.28 770.094 517.536C769.374 517.776 768.766 518.104 768.27 518.52L767.31 516.792C767.966 516.264 768.75 515.864 769.662 515.592C770.574 515.304 771.542 515.16 772.566 515.16ZM772.038 526.368C772.918 526.368 773.678 526.176 774.318 525.792C774.958 525.392 775.422 524.832 775.71 524.112V522.336H772.158C770.206 522.336 769.23 522.992 769.23 524.304C769.23 524.944 769.478 525.448 769.974 525.816C770.47 526.184 771.158 526.368 772.038 526.368ZM789.43 527.256C789.094 527.544 788.678 527.768 788.182 527.928C787.686 528.072 787.174 528.144 786.646 528.144C785.366 528.144 784.374 527.8 783.67 527.112C782.966 526.424 782.614 525.44 782.614 524.16V517.176H780.454V515.28H782.614V512.496H784.918V515.28H788.566V517.176H784.918V524.064C784.918 524.752 785.086 525.28 785.422 525.648C785.774 526.016 786.27 526.2 786.91 526.2C787.614 526.2 788.214 526 788.71 525.6L789.43 527.256ZM803.289 521.712C803.289 521.888 803.273 522.12 803.241 522.408H792.921C793.065 523.528 793.553 524.432 794.385 525.12C795.233 525.792 796.281 526.128 797.529 526.128C799.049 526.128 800.273 525.616 801.201 524.592L802.473 526.08C801.897 526.752 801.177 527.264 800.313 527.616C799.465 527.968 798.513 528.144 797.457 528.144C796.113 528.144 794.921 527.872 793.881 527.328C792.841 526.768 792.033 525.992 791.457 525C790.897 524.008 790.617 522.888 790.617 521.64C790.617 520.408 790.889 519.296 791.433 518.304C791.993 517.312 792.753 516.544 793.713 516C794.689 515.44 795.785 515.16 797.001 515.16C798.217 515.16 799.297 515.44 800.241 516C801.201 516.544 801.945 517.312 802.473 518.304C803.017 519.296 803.289 520.432 803.289 521.712ZM797.001 517.104C795.897 517.104 794.969 517.44 794.217 518.112C793.481 518.784 793.049 519.664 792.921 520.752H801.081C800.953 519.68 800.513 518.808 799.761 518.136C799.025 517.448 798.105 517.104 797.001 517.104ZM832.182 515.28L827.43 528H825.222L821.55 518.352L817.83 528H815.622L810.894 515.28H813.078L816.774 525.408L820.614 515.28H822.558L826.326 525.456L830.118 515.28H832.182ZM834.52 515.28H836.824V528H834.52V515.28ZM835.672 512.832C835.224 512.832 834.848 512.688 834.544 512.4C834.256 512.112 834.112 511.76 834.112 511.344C834.112 510.928 834.256 510.576 834.544 510.288C834.848 509.984 835.224 509.832 835.672 509.832C836.12 509.832 836.488 509.976 836.776 510.264C837.08 510.536 837.232 510.88 837.232 511.296C837.232 511.728 837.08 512.096 836.776 512.4C836.488 512.688 836.12 512.832 835.672 512.832ZM848.375 527.256C848.039 527.544 847.623 527.768 847.127 527.928C846.631 528.072 846.119 528.144 845.591 528.144C844.311 528.144 843.319 527.8 842.615 527.112C841.911 526.424 841.559 525.44 841.559 524.16V517.176H839.399V515.28H841.559V512.496H843.863V515.28H847.511V517.176H843.863V524.064C843.863 524.752 844.031 525.28 844.367 525.648C844.719 526.016 845.215 526.2 845.855 526.2C846.559 526.2 847.159 526 847.655 525.6L848.375 527.256ZM857.953 515.16C859.569 515.16 860.849 515.632 861.793 516.576C862.753 517.504 863.233 518.872 863.233 520.68V528H860.929V520.944C860.929 519.712 860.633 518.784 860.041 518.16C859.449 517.536 858.601 517.224 857.497 517.224C856.249 517.224 855.265 517.592 854.545 518.328C853.825 519.048 853.465 520.088 853.465 521.448V528H851.161V510.192H853.465V517.08C853.945 516.472 854.569 516 855.337 515.664C856.121 515.328 856.993 515.16 857.953 515.16ZM879.486 528.144C878.19 528.144 877.03 527.864 876.006 527.304C874.998 526.744 874.206 525.976 873.63 525C873.054 524.008 872.766 522.888 872.766 521.64C872.766 520.392 873.054 519.28 873.63 518.304C874.206 517.312 874.998 516.544 876.006 516C877.03 515.44 878.19 515.16 879.486 515.16C880.638 515.16 881.662 515.392 882.558 515.856C883.47 516.32 884.174 516.992 884.67 517.872L882.918 519C882.518 518.392 882.022 517.936 881.43 517.632C880.838 517.328 880.182 517.176 879.462 517.176C878.63 517.176 877.878 517.36 877.206 517.728C876.55 518.096 876.03 518.624 875.646 519.312C875.278 519.984 875.094 520.76 875.094 521.64C875.094 522.536 875.278 523.328 875.646 524.016C876.03 524.688 876.55 525.208 877.206 525.576C877.878 525.944 878.63 526.128 879.462 526.128C880.182 526.128 880.838 525.976 881.43 525.672C882.022 525.368 882.518 524.912 882.918 524.304L884.67 525.408C884.174 526.288 883.47 526.968 882.558 527.448C881.662 527.912 880.638 528.144 879.486 528.144ZM892.913 528.144C891.649 528.144 890.513 527.864 889.505 527.304C888.497 526.744 887.705 525.976 887.129 525C886.569 524.008 886.289 522.888 886.289 521.64C886.289 520.392 886.569 519.28 887.129 518.304C887.705 517.312 888.497 516.544 889.505 516C890.513 515.44 891.649 515.16 892.913 515.16C894.177 515.16 895.305 515.44 896.297 516C897.305 516.544 898.089 517.312 898.649 518.304C899.225 519.28 899.513 520.392 899.513 521.64C899.513 522.888 899.225 524.008 898.649 525C898.089 525.976 897.305 526.744 896.297 527.304C895.305 527.864 894.177 528.144 892.913 528.144ZM892.913 526.128C893.729 526.128 894.457 525.944 895.097 525.576C895.753 525.192 896.265 524.664 896.633 523.992C897.001 523.304 897.185 522.52 897.185 521.64C897.185 520.76 897.001 519.984 896.633 519.312C896.265 518.624 895.753 518.096 895.097 517.728C894.457 517.36 893.729 517.176 892.913 517.176C892.097 517.176 891.361 517.36 890.705 517.728C890.065 518.096 889.553 518.624 889.169 519.312C888.801 519.984 888.617 520.76 888.617 521.64C888.617 522.52 888.801 523.304 889.169 523.992C889.553 524.664 890.065 525.192 890.705 525.576C891.361 525.944 892.097 526.128 892.913 526.128ZM918.612 515.16C920.212 515.16 921.476 515.624 922.404 516.552C923.348 517.48 923.82 518.856 923.82 520.68V528H921.516V520.944C921.516 519.712 921.228 518.784 920.652 518.16C920.092 517.536 919.284 517.224 918.228 517.224C917.06 517.224 916.132 517.592 915.444 518.328C914.756 519.048 914.412 520.088 914.412 521.448V528H912.108V520.944C912.108 519.712 911.82 518.784 911.244 518.16C910.684 517.536 909.876 517.224 908.82 517.224C907.652 517.224 906.724 517.592 906.036 518.328C905.348 519.048 905.004 520.088 905.004 521.448V528H902.7V515.28H904.908V517.176C905.372 516.52 905.98 516.024 906.732 515.688C907.484 515.336 908.34 515.16 909.3 515.16C910.292 515.16 911.172 515.36 911.94 515.76C912.708 516.16 913.3 516.744 913.716 517.512C914.196 516.776 914.86 516.2 915.708 515.784C916.572 515.368 917.54 515.16 918.612 515.16ZM932.715 511.944C931.339 511.944 930.651 512.688 930.651 514.176V515.28H934.347V517.176H930.699V528H928.395V517.176H926.235V515.28H928.395V514.152C928.395 512.888 928.763 511.888 929.499 511.152C930.235 510.416 931.267 510.048 932.595 510.048C933.107 510.048 933.587 510.112 934.035 510.24C934.483 510.368 934.867 510.552 935.187 510.792L934.491 512.544C933.963 512.144 933.371 511.944 932.715 511.944ZM941.78 528.144C940.516 528.144 939.38 527.864 938.372 527.304C937.364 526.744 936.572 525.976 935.996 525C935.436 524.008 935.156 522.888 935.156 521.64C935.156 520.392 935.436 519.28 935.996 518.304C936.572 517.312 937.364 516.544 938.372 516C939.38 515.44 940.516 515.16 941.78 515.16C943.044 515.16 944.172 515.44 945.164 516C946.172 516.544 946.956 517.312 947.516 518.304C948.092 519.28 948.38 520.392 948.38 521.64C948.38 522.888 948.092 524.008 947.516 525C946.956 525.976 946.172 526.744 945.164 527.304C944.172 527.864 943.044 528.144 941.78 528.144ZM941.78 526.128C942.596 526.128 943.324 525.944 943.964 525.576C944.62 525.192 945.132 524.664 945.5 523.992C945.868 523.304 946.052 522.52 946.052 521.64C946.052 520.76 945.868 519.984 945.5 519.312C945.132 518.624 944.62 518.096 943.964 517.728C943.324 517.36 942.596 517.176 941.78 517.176C940.964 517.176 940.228 517.36 939.572 517.728C938.932 518.096 938.42 518.624 938.036 519.312C937.668 519.984 937.484 520.76 937.484 521.64C937.484 522.52 937.668 523.304 938.036 523.992C938.42 524.664 938.932 525.192 939.572 525.576C940.228 525.944 940.964 526.128 941.78 526.128ZM953.775 517.416C954.175 516.68 954.767 516.12 955.551 515.736C956.335 515.352 957.287 515.16 958.407 515.16V517.392C958.279 517.376 958.103 517.368 957.879 517.368C956.631 517.368 955.647 517.744 954.927 518.496C954.223 519.232 953.871 520.288 953.871 521.664V528H951.567V515.28H953.775V517.416ZM968.914 527.256C968.578 527.544 968.162 527.768 967.666 527.928C967.17 528.072 966.658 528.144 966.13 528.144C964.85 528.144 963.858 527.8 963.154 527.112C962.45 526.424 962.098 525.44 962.098 524.16V517.176H959.938V515.28H962.098V512.496H964.402V515.28H968.05V517.176H964.402V524.064C964.402 524.752 964.57 525.28 964.906 525.648C965.258 526.016 965.754 526.2 966.394 526.2C967.098 526.2 967.698 526 968.194 525.6L968.914 527.256Z" fill="white"/>
<defs>
<clipPath id="clip0_20_2">
<rect width="74" height="24" fill="white" transform="translate(400 19)"/>
</clipPath>
</defs>
</svg>
